<?xml version="1.0" encoding="iso-8859-1"?>
<!-- Generator: Adobe Illustrator 16.0.0, SVG Export Plug-In . SVG Version: 6.00 Build 0)  -->
<!DOCTYPE svg PUBLIC "-//W3C//DTD SVG 1.1//EN" "http://www.w3.org/Graphics/SVG/1.1/DTD/svg11.dtd">
<svg version="1.1" id="Capa_1" xmlns="http://www.w3.org/2000/svg" xmlns:xlink="http://www.w3.org/1999/xlink" x="0px" y="0px"
	 width="612.002px" height="612.002px" viewBox="0 0 612.002 612.002" style="enable-background:new 0 0 612.002 612.002;"
	 xml:space="preserve">
<g fill="rgb(148, 0, 211)">
	<g id="Diamond">
		<g>
			<path d="M606.553,205.245L513.056,86.249c-4.828-6.154-12.24-9.741-20.06-9.741h-373.99c-7.82,0-15.214,3.587-20.059,9.741
				L5.45,205.245c-7.888,10.03-7.14,24.36,1.768,33.523L287.71,527.76c4.794,4.947,11.406,7.734,18.292,7.734
				c6.884,0,13.498-2.787,18.292-7.734l280.492-288.992C613.692,229.605,614.44,215.292,606.553,205.245z M284.412,127.506h43.195
				l53.447,67.998H230.982L284.412,127.506z M131.416,127.506h88.143l-53.446,67.998H77.97L131.416,127.506z M85.79,246.503h84.317
				l58.768,147.421L85.79,246.503z M306.001,449.631l-80.986-203.128h161.988L306.001,449.631z M383.128,393.924l58.768-147.421
				h84.317L383.128,393.924z M445.907,195.504l-53.446-67.998h88.143l53.446,67.998H445.907z"/>
		</g>
	</g>
</g>
<g>
</g>
<g>
</g>
<g>
</g>
<g>
</g>
<g>
</g>
<g>
</g>
<g>
</g>
<g>
</g>
<g>
</g>
<g>
</g>
<g>
</g>
<g>
</g>
<g>
</g>
<g>
</g>
<g>
</g>
</svg>
