<?xml version="1.0" encoding="utf-8"?>
<!-- Generator: Adobe Illustrator 19.0.0, SVG Export Plug-In . SVG Version: 6.00 Build 0)  -->
<svg version="1.1" id="Layer_1" xmlns="http://www.w3.org/2000/svg" xmlns:xlink="http://www.w3.org/1999/xlink" x="0px" y="0px"
	 viewBox="0 0 96 96" style="enable-background:new 0 0 96 96;" xml:space="preserve">
<style type="text/css">
	.st0{fill:#ffffff;}
</style>
<g id="XMLID_4_">
	<path id="XMLID_6_" class="st0" d="M32.3,44.5c4.2,8.3,11,15,19.2,19.2l6.4-6.4c0.8-0.8,2-1,3-0.7c3.3,1.1,6.8,1.7,10.4,1.7
		c1.6,0,2.9,1.3,2.9,2.9v10.2c0,1.6-1.3,2.9-2.9,2.9c-27.4,0-49.6-22.2-49.6-49.6c0-1.6,1.3-2.9,2.9-2.9h10.2c1.6,0,2.9,1.3,2.9,2.9
		c0,3.6,0.6,7.1,1.7,10.4c0.3,1,0.1,2.2-0.7,3L32.3,44.5z"/>
</g>
</svg>
